<svg xmlns="http://www.w3.org/2000/svg" viewBox="0 0 96 96">
  <title>customer, service, support, help</title>
  <g>
    <path d="M48,6A36.1,36.1,0,0,0,12,42V58a4,4,0,0,0,8,0V42a3.9,3.9,0,0,0-3.7-3.9,31.9,31.9,0,0,1,63.4,0A3.9,3.9,0,0,0,76,42V58a4.1,4.1,0,0,0,2.8,3.8c-3.9,9.1-17,11.8-23.4,12.2A4,4,0,0,0,52,72H44a4,4,0,0,0,0,8h8a3.9,3.9,0,0,0,3.4-2C64.2,77.5,84,73,84,56V42A36,36,0,0,0,48,6Z" fill="#646464"/>
    <path d="M39.4,30.6c8.1,8.1,19.7,10.8,32.6,7.6V38a24,24,0,0,0-48-.1c5.6-.4,8.9-3.6,12.6-7.3A1.9,1.9,0,0,1,39.4,30.6Z" fill="#646464"/>
    <path d="M52,84H44a8,8,0,0,1,0-16h8a8.3,8.3,0,0,1,5,1.8c4.4-.5,10.9-2.1,15-5.6V42.3a46,46,0,0,1-10.2,1.3A35,35,0,0,1,38,34.8c-3.4,3.4-7.6,6.7-14,7.1V64c0,10.6,8.5,26,24,26,8.2,0,14.4-4.3,18.4-9.9a45.6,45.6,0,0,1-9,1.7A7.6,7.6,0,0,1,52,84Zm.2-28.8a6.1,6.1,0,0,1,11.6,0,1.9,1.9,0,0,1-1,2.6L62,58a1.8,1.8,0,0,1-1.8-1.2c-1-2.3-3.4-2.3-4.4,0a2,2,0,0,1-3.6-1.6Zm-19,2.6a1.9,1.9,0,0,1-1-2.6A6.4,6.4,0,0,1,38,51a6.4,6.4,0,0,1,5.8,4.2,1.9,1.9,0,0,1-1,2.6L42,58a1.8,1.8,0,0,1-1.8-1.2c-1-2.3-3.4-2.3-4.4,0A1.9,1.9,0,0,1,33.2,57.8Z" fill="#646464"/>
  </g>
</svg>
