<svg xmlns="http://www.w3.org/2000/svg" viewBox="0 0 96 96">
  <title>discount, sale, offer, promotion</title>
  <g>
    <path d="M85,40.7l-2-1a4.1,4.1,0,0,1-1.8-5.6l1-1.9a8.1,8.1,0,0,0-8.5-11.9l-2.2.4a4.1,4.1,0,0,1-3.2-.7,3.9,3.9,0,0,1-1.6-2.8L66.4,15a8.1,8.1,0,0,0-13.9-4.5L51,12.1h0a4.2,4.2,0,0,1-6,0l-1.5-1.6a8.1,8.1,0,0,0-13.9,4.6l-.3,2.1A3.9,3.9,0,0,1,27.7,20a4.1,4.1,0,0,1-3.2.7l-2.2-.4a8.3,8.3,0,0,0-8,3.2,8.1,8.1,0,0,0-.5,8.7l1,1.9a3.6,3.6,0,0,1,.3,3.2A3.6,3.6,0,0,1,13,39.7l-2,1a8.1,8.1,0,0,0,0,14.6l2,1a3.6,3.6,0,0,1,2.1,2.4,3.6,3.6,0,0,1-.3,3.2l-1,1.9a8.1,8.1,0,0,0,.5,8.7,8.3,8.3,0,0,0,8,3.2l2.2-.4a4.1,4.1,0,0,1,3.2.7,3.7,3.7,0,0,1,1.6,2.8l.3,2.1a8,8,0,0,0,5.5,6.7,7.8,7.8,0,0,0,2.6.4,8.3,8.3,0,0,0,5.8-2.5L45,83.9a4.2,4.2,0,0,1,6,0l1.5,1.6a8.1,8.1,0,0,0,13.9-4.6l.3-2.1A3.7,3.7,0,0,1,68.3,76a4.1,4.1,0,0,1,3.2-.7l2.2.4a8.1,8.1,0,0,0,8.5-11.9l-1-1.9A4.1,4.1,0,0,1,83,56.3l2-1a8.1,8.1,0,0,0,0-14.6ZM32,38a6,6,0,1,1,6,6A6,6,0,0,1,32,38Zm5.4,23.4a1.9,1.9,0,0,1-2.8,0,1.9,1.9,0,0,1,0-2.8l24-24a2,2,0,0,1,2.8,2.8ZM58,64a6,6,0,1,1,6-6A6,6,0,0,1,58,64Z" fill="#646464"/>
    <circle cx="58" cy="58" r="2" fill="#646464"/>
    <circle cx="38" cy="38" r="2" fill="#646464"/>
  </g>
</svg>
