<svg xmlns="http://www.w3.org/2000/svg" viewBox="0 0 96 96">
  <title>online, wallet, payment, smartphone</title>
  <g>
    <path d="M18,82A10,10,0,0,0,28,92H56A10,10,0,0,0,66,82V76H18Zm22,0h4a2,2,0,0,1,0,4H40a2,2,0,0,1,0-4Z" fill="#646464"/>
    <path d="M66,14A10,10,0,0,0,56,4H28A10,10,0,0,0,18,14v6H66ZM48,14H36a2,2,0,0,1,0-4H48a2,2,0,0,1,0,4Z" fill="#646464"/>
    <path d="M46,35a2.9,2.9,0,0,0,3,3H76V34a2,2,0,0,0-2-2H49A2.9,2.9,0,0,0,46,35Z" fill="#646464"/>
    <path d="M42,58V35.9h0A8,8,0,0,1,50,28H66V24H18V72H66V68H52A10,10,0,0,1,42,58Z" fill="#646464"/>
    <path d="M80,42H50a7.7,7.7,0,0,1-4-1.1V58a6,6,0,0,0,6,6H80a2,2,0,0,0,2-2V44A2,2,0,0,0,80,42Z" fill="#646464"/>
  </g>
</svg>
