<svg xmlns="http://www.w3.org/2000/svg" viewBox="0 0 96 96">
  <title>price, tag, sale, label</title>
  <g>
    <circle cx="65" cy="30" r="2" fill="#646464"/>
    <path d="M85.3,42.4,81.1,15.6a1.9,1.9,0,0,0-1.7-1.7L52.6,9.7a2.3,2.3,0,0,0-1.8.5L8.4,52.7a1.9,1.9,0,0,0,0,2.8L39.5,86.6a1.9,1.9,0,0,0,2.8,0L84.8,44.2A2.3,2.3,0,0,0,85.3,42.4ZM69.2,25.8a5.9,5.9,0,0,1,0,8.5,6,6,0,0,1-8.5-8.5A5.9,5.9,0,0,1,69.2,25.8Zm-26.9,24,2.9,2.9a6,6,0,1,1-8.5,8.4l-1.4,1.5a2.1,2.1,0,1,1-2.9-2.9l1.5-1.4L31,55.5a1.9,1.9,0,0,1,0-2.8,2.1,2.1,0,0,1,2.9,0l5.6,5.6a2,2,0,0,0,2.8-2.8l-2.8-2.8a6.1,6.1,0,0,1,0-8.5,5.9,5.9,0,0,1,8.5,0l1.4-1.4a2,2,0,0,1,2.8,2.8L50.8,47l2.9,2.8a2.1,2.1,0,0,1-2.9,2.9L45.2,47a2.1,2.1,0,0,0-2.9,0A2.1,2.1,0,0,0,42.3,49.8Z" fill="#646464"/>
  </g>
</svg>
