<svg xmlns="http://www.w3.org/2000/svg" viewBox="0 0 96 96">
  <title>rating, quality, review, feedback</title>
  <g>
    <path d="M54.8,46.4A1.9,1.9,0,0,0,56,46a2,2,0,0,0,.8-1.9l-1.2-6.5,4.8-4.7a2,2,0,0,0-1.1-3.4l-6.6-.9-2.9-6a2.1,2.1,0,0,0-3.6,0l-2.9,6-6.6.9a2,2,0,0,0-1.1,3.4l4.8,4.7-1.2,6.5A2,2,0,0,0,40,46a1.8,1.8,0,0,0,2.1.2L48,43.1l5.9,3.1A1.5,1.5,0,0,0,54.8,46.4Z" fill="#646464"/>
    <path d="M89.9,30.9a2.1,2.1,0,0,0-1.6-1.4l-6.6-.9-2.9-6a2.1,2.1,0,0,0-3.6,0l-2.9,6-6.6.9a2,2,0,0,0-1.1,3.4l4.8,4.7-1.2,6.5A2,2,0,0,0,69,46a1.8,1.8,0,0,0,2.1.2L77,43.1l5.9,3.1a1.5,1.5,0,0,0,.9.2A1.9,1.9,0,0,0,85,46a2,2,0,0,0,.8-1.9l-1.2-6.5,4.8-4.7A2.1,2.1,0,0,0,89.9,30.9Z" fill="#646464"/>
    <path d="M25.8,46.4A1.9,1.9,0,0,0,27,46a2,2,0,0,0,.8-1.9l-1.2-6.5,4.8-4.7a2,2,0,0,0-1.1-3.4l-6.6-.9-2.9-6a2.1,2.1,0,0,0-3.6,0l-2.9,6-6.6.9a2,2,0,0,0-1.1,3.4l4.8,4.7-1.2,6.5A2,2,0,0,0,11,46a1.8,1.8,0,0,0,2.1.2L19,43.1l5.9,3.1A1.5,1.5,0,0,0,25.8,46.4Z" fill="#646464"/>
    <path d="M74.8,57.5l-6.6-.9-2.9-6a2.1,2.1,0,0,0-3.6,0l-2.9,6-6.6.9a2,2,0,0,0-1.1,3.4l4.8,4.7-1.2,6.5a2,2,0,0,0,.8,1.9,1.8,1.8,0,0,0,2.1.2l5.9-3.1,5.9,3.1a1.5,1.5,0,0,0,.9.2,1.9,1.9,0,0,0,1.2-.4,2,2,0,0,0,.8-1.9l-1.2-6.5,4.8-4.7a2,2,0,0,0-1.1-3.4Z" fill="#646464"/>
    <path d="M43.8,57.5l-6.6-.9-2.9-6a2.1,2.1,0,0,0-3.6,0l-2.9,6-6.6.9a2,2,0,0,0-1.1,3.4l4.8,4.7-1.2,6.5a2,2,0,0,0,.8,1.9,1.8,1.8,0,0,0,2.1.2l5.9-3.1,5.9,3.1a1.5,1.5,0,0,0,.9.2,1.9,1.9,0,0,0,1.2-.4,2,2,0,0,0,.8-1.9l-1.2-6.5,4.8-4.7a2,2,0,0,0-1.1-3.4Z" fill="#646464"/>
  </g>
</svg>
