<svg xmlns="http://www.w3.org/2000/svg" viewBox="0 0 96 96">
  <title>receipt, bill, purchase, store</title>
  <g>
    <path d="M17.2,8.1A6.1,6.1,0,0,0,12,14.2V62a2,2,0,0,0,2,2H24V14A5.9,5.9,0,0,0,17.2,8.1Z" fill="#646464"/>
    <path d="M76,8H25.9A9.7,9.7,0,0,1,28,14V86a2,2,0,0,0,.9,1.7,2.2,2.2,0,0,0,1.8.2l9.2-3.7,7.2,3.6a1.9,1.9,0,0,0,1.8,0L56,84.2l7.1,3.6a1.9,1.9,0,0,0,1.8,0l7.2-3.6,9.2,3.7H82a2,2,0,0,0,1.1-.3A2,2,0,0,0,84,86V16A8,8,0,0,0,76,8ZM40,20H71.9A2.1,2.1,0,0,1,74,21.7,2,2,0,0,1,72,24H40.1A2.1,2.1,0,0,1,38,22.3,2,2,0,0,1,40,20Zm0,10H71.9A2.1,2.1,0,0,1,74,31.7,2,2,0,0,1,72,34H40.1A2.1,2.1,0,0,1,38,32.3,2,2,0,0,1,40,30ZM52,64H40.1A2.1,2.1,0,0,1,38,62.3,2,2,0,0,1,40,60H51.9A2.1,2.1,0,0,1,54,61.7,2,2,0,0,1,52,64Zm0-10H40.1A2.1,2.1,0,0,1,38,52.3,2,2,0,0,1,40,50H51.9A2.1,2.1,0,0,1,54,51.7,2,2,0,0,1,52,54Zm6-10H40.1A2.1,2.1,0,0,1,38,42.3,2,2,0,0,1,40,40H57.9A2.1,2.1,0,0,1,60,41.7,2,2,0,0,1,58,44Zm8,14h3.8a6.1,6.1,0,0,1,6.1,5.2A5.9,5.9,0,0,1,70,70v1.9A2.1,2.1,0,0,1,68.3,74,2,2,0,0,1,66,72V70H62.1A2.1,2.1,0,0,1,60,68.3,2,2,0,0,1,62,66h7.9A2.1,2.1,0,0,0,72,64.3,2,2,0,0,0,70,62H66.2a6.1,6.1,0,0,1-6.1-5.2A5.9,5.9,0,0,1,66,50V48.1A2.1,2.1,0,0,1,67.7,46,2,2,0,0,1,70,48v2h3.9A2.1,2.1,0,0,1,76,51.7,2,2,0,0,1,74,54H66.1A2.1,2.1,0,0,0,64,55.7,2,2,0,0,0,66,58Z" fill="#646464"/>
  </g>
</svg>
