<svg xmlns="http://www.w3.org/2000/svg" viewBox="0 0 96 96">
  <title>add, to, cart, shopping</title>
  <g>
    <path d="M74,70H27.7L27,64H78a2,2,0,0,0,2-1.7l6-38a1.8,1.8,0,0,0-.5-1.6A2.1,2.1,0,0,0,84,22H67.8a13.6,13.6,0,0,1,.2,2,16,16,0,0,1-32,0,13.6,13.6,0,0,1,.2-2H21.4L20,11.7A2,2,0,0,0,18,10H8a2,2,0,0,0,0,4h8.2l7.6,56.4A7.8,7.8,0,0,0,18,78a8,8,0,0,0,16,0,7.7,7.7,0,0,0-1.1-4H67.1A7.7,7.7,0,0,0,66,78a8,8,0,1,0,8-8Z" fill="#646464"/>
    <path d="M52,36A12,12,0,1,0,40,24,12,12,0,0,0,52,36ZM48,22h2V20a2,2,0,0,1,4,0v2h2a2,2,0,0,1,0,4H54v2a2,2,0,0,1-4,0V26H48a2,2,0,0,1,0-4Z" fill="#646464"/>
  </g>
</svg>
