<svg xmlns="http://www.w3.org/2000/svg" viewBox="0 0 96 96">
  <title>affiliate, marketing, network, advertising</title>
  <g>
    <path d="M48,26A22,22,0,1,0,70,48,22.1,22.1,0,0,0,48,26ZM46,46h4a6,6,0,0,1,0,12v2a2,2,0,0,1-4,0V58H42a2,2,0,0,1,0-4h8a2,2,0,0,0,0-4H46a6,6,0,0,1,0-12V36a2,2,0,0,1,4,0v2h4a2,2,0,0,1,0,4H46a2,2,0,0,0,0,4Z" fill="#646464"/>
    <path d="M43.4,15.4,46,12.8V20a2,2,0,0,0,4,0V12.8l2.6,2.6a1.9,1.9,0,0,0,2.8,0,1.9,1.9,0,0,0,0-2.8l-6-6a1.9,1.9,0,0,0-2.8,0l-6,6a2,2,0,0,0,2.8,2.8Z" fill="#646464"/>
    <path d="M52.6,80.6,50,83.2V76a2,2,0,0,0-4,0v7.2l-2.6-2.6a2,2,0,0,0-2.8,2.8l6,6a1.9,1.9,0,0,0,2.8,0l6-6a2,2,0,0,0-2.8-2.8Z" fill="#646464"/>
    <path d="M24.8,32.3l-6.3-3.6,3.6-1a2,2,0,0,0,1.4-2.4A2,2,0,0,0,21,23.9l-8.2,2.2a2,2,0,0,0-1.4,2.4l2.2,8.2a2.1,2.1,0,0,0,2,1.5h.5a2,2,0,0,0,1.4-2.4l-1-3.6,6.3,3.6a1.7,1.7,0,0,0,1,.3,2.2,2.2,0,0,0,1.7-1A2,2,0,0,0,24.8,32.3Z" fill="#646464"/>
    <path d="M82.4,59.3a2,2,0,0,0-2.5-1.4,2,2,0,0,0-1.4,2.4l1,3.6-6.3-3.6a1.9,1.9,0,0,0-2.7.7,2,2,0,0,0,.7,2.7l6.3,3.6-3.6,1a2,2,0,0,0-1.4,2.4,2.1,2.1,0,0,0,1.9,1.5H75l8.2-2.2a2,2,0,0,0,1.4-2.4Z" fill="#646464"/>
    <path d="M72.2,36a1.7,1.7,0,0,0,1-.3l6.3-3.6-1,3.6a2,2,0,0,0,1.4,2.4h.5a2.1,2.1,0,0,0,2-1.5l2.2-8.2a2,2,0,0,0-1.4-2.4L75,23.9a2,2,0,0,0-2.5,1.4,2,2,0,0,0,1.4,2.4l3.6,1-6.3,3.6a2,2,0,0,0-.7,2.7A2.2,2.2,0,0,0,72.2,36Z" fill="#646464"/>
    <path d="M22.8,60.3l-6.3,3.6,1-3.6a2,2,0,0,0-1.4-2.4,2,2,0,0,0-2.5,1.4l-2.2,8.2a2,2,0,0,0,1.4,2.4L21,72.1h.6a2.1,2.1,0,0,0,1.9-1.5,2,2,0,0,0-1.4-2.4l-3.6-1,6.3-3.6a2,2,0,0,0,.7-2.7A1.9,1.9,0,0,0,22.8,60.3Z" fill="#646464"/>
  </g>
</svg>
