<svg xmlns="http://www.w3.org/2000/svg" viewBox="0 0 96 96">
  <title>cash, register, retail, shop</title>
  <g>
    <path d="M86,72H10a2,2,0,0,0-2,2V86a2,2,0,0,0,2,2H86a2,2,0,0,0,2-2V74A2,2,0,0,0,86,72ZM54,82H42a2,2,0,0,1,0-4H54a2,2,0,0,1,0,4Z" fill="#646464"/>
    <rect x="52" y="36" width="18" height="4" fill="#646464"/>
    <path d="M82,26a2,2,0,0,0-2-2H64V20h8a2,2,0,0,0,2-2V10a2,2,0,0,0-2-2H48a2,2,0,0,0-2,2v8a2,2,0,0,0,2,2h8v4H16a2,2,0,0,0-2,2V68H82ZM38,40H26a2,2,0,0,1,0-4H38a2,2,0,0,1,0,4ZM52,60H50a2,2,0,0,1,0-4h2a2,2,0,0,1,0,4Zm0-8H50a2,2,0,0,1,0-4h2a2,2,0,0,1,0,4Zm10,8H60a2,2,0,0,1,0-4h2a2,2,0,0,1,0,4Zm0-8H60a2,2,0,0,1,0-4h2a2,2,0,0,1,0,4Zm10,8H70a2,2,0,0,1,0-4h2a2,2,0,0,1,0,4Zm0-8H70a2,2,0,0,1,0-4h2a2,2,0,0,1,0,4Zm2-10a2,2,0,0,1-2,2H50a2,2,0,0,1-2-2V34a2,2,0,0,1,2-2H72a2,2,0,0,1,2,2Z" fill="#646464"/>
  </g>
</svg>
