<svg xmlns="http://www.w3.org/2000/svg" viewBox="0 0 96 96">
  <title>coupon, discount, price, sale</title>
  <path d="M70,24h6V10a1.9,1.9,0,0,0-1-1.7,1.8,1.8,0,0,0-2,0l-8.9,5.3L57.2,8.4a2.1,2.1,0,0,0-2.4,0L48,13.5,41.2,8.4a2.1,2.1,0,0,0-2.4,0l-6.9,5.2L23,8.3a1.8,1.8,0,0,0-2,0A1.9,1.9,0,0,0,20,10V24h6a2,2,0,0,1,0,4H20V86a1.9,1.9,0,0,0,1,1.7,1.8,1.8,0,0,0,2,0l8.9-5.3,6.9,5.2a2.1,2.1,0,0,0,2.4,0L48,82.5l6.8,5.1a2.1,2.1,0,0,0,2.4,0l6.9-5.2L73,87.7a1.7,1.7,0,0,0,1,.3,2.1,2.1,0,0,0,2-2V28H70a2,2,0,0,1,0-4ZM46,24h4a2,2,0,0,1,0,4H46a2,2,0,0,1,0-4ZM44,48a4,4,0,1,1-4-4A4,4,0,0,1,44,48ZM32,26a2,2,0,0,1,2-2h4a2,2,0,0,1,0,4H34A2,2,0,0,1,32,26ZM56,68a4,4,0,1,1,4-4A4,4,0,0,1,56,68Zm3.4-20.6-20,20a1.9,1.9,0,0,1-2.8,0,1.9,1.9,0,0,1,0-2.8l20-20a2,2,0,0,1,2.8,2.8ZM62,28H58a2,2,0,0,1,0-4h4a2,2,0,0,1,0,4Z" fill="#646464"/>
</svg>
