<svg xmlns="http://www.w3.org/2000/svg" viewBox="0 0 96 96">
  <title>credit, card, payment, shopping</title>
  <g>
    <path d="M68,26H16A10,10,0,0,0,6,36v2H78V36A10,10,0,0,0,68,26Z" fill="#646464"/>
    <rect x="22" y="62" width="4" height="4" fill="#646464"/>
    <path d="M80,14H28a10,10,0,0,0-9.8,8H68A14,14,0,0,1,82,36V69.8A10,10,0,0,0,90,60V24A10,10,0,0,0,80,14Z" fill="#646464"/>
    <path d="M6,72A10,10,0,0,0,16,82H68A10,10,0,0,0,78,72V42H6ZM18,60a2,2,0,0,1,2-2h8a2,2,0,0,1,2,2v8a2,2,0,0,1-2,2H20a2,2,0,0,1-2-2Z" fill="#646464"/>
  </g>
</svg>
