<svg xmlns="http://www.w3.org/2000/svg" viewBox="0 0 96 96">
  <title>money, cash, payment, shopping</title>
  <g>
    <ellipse cx="78" cy="54" rx="14" ry="8" fill="#646464"/>
    <path d="M64,61.7V62c0,4.6,6,8,14,8s14-3.4,14-8v-.3C88.8,64.4,83.9,66,78,66S67.2,64.4,64,61.7Z" fill="#646464"/>
    <circle cx="42" cy="44" r="6" fill="#646464"/>
    <path d="M60.1,53.6C60.4,46.9,67.8,42,78,42h2V36A14,14,0,0,1,66,22H18A14,14,0,0,1,4,36V52A14,14,0,0,1,18,66H61a9.1,9.1,0,0,1-1-4V53.5ZM42,54A10,10,0,1,1,52,44,10,10,0,0,1,42,54Z" fill="#646464"/>
    <path d="M80,32V24a2,2,0,0,0-2-2H70A10,10,0,0,0,80,32Z" fill="#646464"/>
    <path d="M14,22H6a2,2,0,0,0-2,2v8A10,10,0,0,0,14,22Z" fill="#646464"/>
    <path d="M4,56v8a2,2,0,0,0,2,2h8A10,10,0,0,0,4,56Z" fill="#646464"/>
    <path d="M64,69.7V70c0,4.6,6,8,14,8s14-3.4,14-8v-.3C88.8,72.4,83.9,74,78,74S67.2,72.4,64,69.7Z" fill="#646464"/>
  </g>
</svg>
