<svg xmlns="http://www.w3.org/2000/svg" viewBox="0 0 96 96">
  <title>online, payment, banking, smartphone</title>
  <g>
    <path d="M16,82A10,10,0,0,0,26,92H54A10,10,0,0,0,64,82V76H16Zm22,0h4a2,2,0,0,1,0,4H38a2,2,0,0,1,0-4Z" fill="#646464"/>
    <path d="M64,14A10,10,0,0,0,54,4H26A10,10,0,0,0,16,14v6H64ZM46,14H34a2,2,0,0,1,0-4H46a2,2,0,0,1,0,4Z" fill="#646464"/>
    <path d="M78,32H46a6,6,0,0,0-6,6v2H84V38A6,6,0,0,0,78,32Z" fill="#646464"/>
    <path d="M36,58V38A10,10,0,0,1,46,28H64V24H16V72H64V68H46A10,10,0,0,1,36,58Z" fill="#646464"/>
    <path d="M40,58a6,6,0,0,0,6,6H78a6,6,0,0,0,6-6V44H40Zm10-6h4a2,2,0,0,1,0,4H50a2,2,0,0,1,0-4Z" fill="#646464"/>
  </g>
</svg>
