<svg xmlns="http://www.w3.org/2000/svg" viewBox="0 0 96 96">
  <title>purchase, buy, cart, shopping</title>
  <g>
    <path d="M87.6,12.8A2.1,2.1,0,0,0,86,12H58.4L58,9.6A2,2,0,0,0,56,8H50a2,2,0,0,0,0,4h4.4L58,30.4A2,2,0,0,0,60,32H82a1.9,1.9,0,0,0,1.9-1.5l4-16A1.7,1.7,0,0,0,87.6,12.8Z" fill="#646464"/>
    <circle cx="62" cy="40" r="4" fill="#646464"/>
    <circle cx="80" cy="40" r="4" fill="#646464"/>
    <path d="M77.4,56.6a1.9,1.9,0,0,0-2.8,0l-6,6a2,2,0,0,0,2.8,2.8L74,62.8V80H58a2,2,0,0,0,0,4H76a2,2,0,0,0,2-2V62.8l2.6,2.6a1.9,1.9,0,0,0,2.8,0,1.9,1.9,0,0,0,0-2.8Z" fill="#646464"/>
    <path d="M16,38a2,2,0,0,0,2-2V20H35.2l-2.6,2.6a1.9,1.9,0,0,0,0,2.8,1.9,1.9,0,0,0,2.8,0l6-6a1.9,1.9,0,0,0,0-2.8l-6-6a2,2,0,0,0-2.8,2.8L35.2,16H16a2,2,0,0,0-2,2V36A2,2,0,0,0,16,38Z" fill="#646464"/>
    <circle cx="26" cy="58" r="10" fill="#646464"/>
    <path d="M30,72H22A14,14,0,0,0,8,86a2,2,0,0,0,2,2H42a2,2,0,0,0,2-2A14,14,0,0,0,30,72Z" fill="#646464"/>
  </g>
</svg>
