<svg xmlns="http://www.w3.org/2000/svg" viewBox="0 0 96 96">
  <title>recommendation, satisfaction, review, customer</title>
  <g>
    <path d="M51.8,42,48,34.4,44.2,42a1.9,1.9,0,0,1-1.5,1.1l-8.4,1.3,6.1,5.9a2,2,0,0,1,.6,1.8l-1.5,8.4,7.6-4a2.1,2.1,0,0,1,1.8,0l7.6,4L55,52.1a2,2,0,0,1,.6-1.8l6.1-5.9-8.4-1.3A1.9,1.9,0,0,1,51.8,42Z" fill="#646464"/>
    <path d="M85,40.7l-2-1a3.6,3.6,0,0,1-2.1-2.4,4,4,0,0,1,.3-3.2l1-1.9a8.1,8.1,0,0,0-8.5-11.9l-2.2.4a4.1,4.1,0,0,1-3.2-.7,3.9,3.9,0,0,1-1.6-2.8l-.3-2.1a8.1,8.1,0,0,0-13.9-4.6L51,12.1h0a4.2,4.2,0,0,1-6,0l-1.5-1.6A8.1,8.1,0,0,0,29.6,15l-.3,2.2A3.9,3.9,0,0,1,27.7,20a4.1,4.1,0,0,1-3.2.7l-2.2-.4a8.1,8.1,0,0,0-8.5,11.9l1,1.9a4,4,0,0,1,.3,3.2A3.6,3.6,0,0,1,13,39.7l-2,1a8.1,8.1,0,0,0,0,14.6l2,1a3.6,3.6,0,0,1,2.1,2.4,4,4,0,0,1-.3,3.2l-1,1.9a8.3,8.3,0,0,0,.5,8.7,8.1,8.1,0,0,0,8,3.2l2.2-.4a4.1,4.1,0,0,1,3.2.7,3.7,3.7,0,0,1,1.6,2.8l.3,2.1a8,8,0,0,0,5.5,6.7,7.8,7.8,0,0,0,2.6.4,8.3,8.3,0,0,0,5.8-2.5L45,83.9a4.2,4.2,0,0,1,6,0l1.5,1.6a8.1,8.1,0,0,0,13.9-4.6l.3-2.1A3.7,3.7,0,0,1,68.3,76a4.1,4.1,0,0,1,3.2-.7l2.2.4a8.1,8.1,0,0,0,8.5-11.9l-1-1.9a4,4,0,0,1-.3-3.2A3.6,3.6,0,0,1,83,56.3l2-1a8.1,8.1,0,0,0,0-14.6ZM67.4,44.4l-8.3,8,2,11.4a2,2,0,0,1-.8,1.9,1.7,1.7,0,0,1-1.2.4l-.9-.2L48,60.5,37.8,65.9a2,2,0,0,1-2.9-2.1l2-11.4-8.3-8a2.2,2.2,0,0,1-.5-2.1A2,2,0,0,1,29.7,41l11.4-1.7L46.2,29a2.1,2.1,0,0,1,3.6,0l5.1,10.3L66.3,41a2,2,0,0,1,1.6,1.3A2.2,2.2,0,0,1,67.4,44.4Z" fill="#646464"/>
  </g>
</svg>
