<svg xmlns="http://www.w3.org/2000/svg" viewBox="0 0 96 96">
  <title>buy, shop, online, retail</title>
  <g>
    <path d="M28,38H24v8h4a4,4,0,0,0,0-8Z" fill="#646464"/>
    <path d="M28,26H24v8h4a4,4,0,0,0,0-8Z" fill="#646464"/>
    <path d="M78,10H18A10,10,0,0,0,8,20V52A10,10,0,0,0,18,62H42.6l1.7-4.3a6.1,6.1,0,0,1,5.6-3.8,5.9,5.9,0,0,1,3.7,1.3L62.3,62H78A10,10,0,0,0,88,52V20A10,10,0,0,0,78,10ZM36,42a8,8,0,0,1-8,8H22a2,2,0,0,1-2-2V24a2,2,0,0,1,2-2h6a7.9,7.9,0,0,1,5.2,14A8,8,0,0,1,36,42Zm20,0a8,8,0,0,1-16,0V24a2,2,0,0,1,4,0V42a4,4,0,0,0,8,0V24a2,2,0,0,1,4,0Zm20,0a8,8,0,0,1-8,8,7.9,7.9,0,0,1-7.5-5.3,2,2,0,0,1,1.2-2.6,2.2,2.2,0,0,1,2.6,1.2A3.9,3.9,0,0,0,68,46a4,4,0,0,0,4-4V36.9A7.7,7.7,0,0,1,68,38a8,8,0,0,1-8-8V24a2,2,0,0,1,4,0v6a4,4,0,0,0,8,0V24a2,2,0,0,1,4,0Z" fill="#646464"/>
    <path d="M51.1,58.3a2.1,2.1,0,0,0-3.1.9L40.6,77.7A2,2,0,0,0,43,80.4l5.7-1.6,2.6,9.7a2,2,0,0,0,2.5,1.4l7.7-2a2,2,0,0,0,1.4-2.5l-2.6-9.7,5.8-1.5a2.1,2.1,0,0,0,1.5-1.5,2.4,2.4,0,0,0-.7-2Z" fill="#646464"/>
  </g>
</svg>
