<svg xmlns="http://www.w3.org/2000/svg" viewBox="0 0 96 96">
  <title>wishlist, shopping, gift, present</title>
  <g>
    <path d="M83.9,64.7c-2-1.1-5-1.1-7.9,1.3-2.9-2.4-5.9-2.4-7.9-1.3S63,70.1,64.5,75.8,73.5,88,76,88s9.7-5.1,11.5-12.2S86.8,66.1,83.9,64.7Z" fill="#646464"/>
    <path d="M66.3,61.1A10.4,10.4,0,0,1,70.9,60,11.3,11.3,0,0,1,76,61.2a14,14,0,0,1,4-1.1V16a8,8,0,0,0-8-8H20a8,8,0,0,0-8,8V76a8,8,0,0,0,8,8H64.2a20.3,20.3,0,0,1-3.6-7.2C58.6,69,62,63.3,66.3,61.1ZM46,20H66a2,2,0,0,1,0,4H46a2,2,0,0,1,0-4Zm0,14H66a2,2,0,0,1,0,4H46a2,2,0,0,1,0-4ZM37.4,49.4l-6,6a1.9,1.9,0,0,1-2.8,0l-4-4a2,2,0,0,1,2.8-2.8L30,51.2l4.6-4.6a2,2,0,0,1,2.8,2.8Zm0-14-6,6a1.9,1.9,0,0,1-2.8,0l-4-4a2,2,0,0,1,2.8-2.8L30,37.2l4.6-4.6a2,2,0,0,1,2.8,2.8Zm0-14-6,6a1.9,1.9,0,0,1-2.8,0l-4-4a2,2,0,0,1,2.8-2.8L30,23.2l4.6-4.6a2,2,0,0,1,2.8,2.8ZM44,50a2,2,0,0,1,2-2H66a2,2,0,0,1,0,4H46A2,2,0,0,1,44,50Z" fill="#646464"/>
  </g>
</svg>
